PathFileType	4	(X/Y/Z)	C:\Users\Basilio\Documents\Thesis Gigler\squatting_fais\c3dfiles\047\SLS_pre_front4\markers_experimental.trc
DataRate	CameraRate	NumFrames	NumMarkers	Units	OrigDataRate	OrigDataStartFrame	OrigNumFrames
200.000000	200.000000	4	60	mm	200.000000	526	1404
Frame#	Time	FHD			LBHD			RBHD			C7			T10			CLAV			LSHO			LUUPA			LMUPA			LDUPA			LLEP			LMEP			LRAD			LUL			LRFIN			RSHO			RUPA1			RMUPA			RDUPA			RLEP			RMEP			RRAD			RUL			RUFIN			LASI			RASI			USACR			LSACR			RSACR			LTHI1			LTHI2			LTHI3			LTHI4			LLFC			LMFC			LTIB1			LTIB2			LTIB3			LTIB4			LLMAL			LMMAL			LMT1			LMT2			LMT5			RTHI			RTHI2			RTHI3			RTHI4			RLFC			RMFC			RTIB1			RTIB2			RTIB3			RTIB4			RLMAL			RMMAL			RHEE			RMT1			RMT2			RMT5			
		X1	Y1	Z1	X2	Y2	Z2	X3	Y3	Z3	X4	Y4	Z4	X5	Y5	Z5	X6	Y6	Z6	X7	Y7	Z7	X8	Y8	Z8	X9	Y9	Z9	X10	Y10	Z10	X11	Y11	Z11	X12	Y12	Z12	X13	Y13	Z13	X14	Y14	Z14	X15	Y15	Z15	X16	Y16	Z16	X17	Y17	Z17	X18	Y18	Z18	X19	Y19	Z19	X20	Y20	Z20	X21	Y21	Z21	X22	Y22	Z22	X23	Y23	Z23	X24	Y24	Z24	X25	Y25	Z25	X26	Y26	Z26	X27	Y27	Z27	X28	Y28	Z28	X29	Y29	Z29	X30	Y30	Z30	X31	Y31	Z31	X32	Y32	Z32	X33	Y33	Z33	X34	Y34	Z34	X35	Y35	Z35	X36	Y36	Z36	X37	Y37	Z37	X38	Y38	Z38	X39	Y39	Z39	X40	Y40	Z40	X41	Y41	Z41	X42	Y42	Z42	X43	Y43	Z43	X44	Y44	Z44	X45	Y45	Z45	X46	Y46	Z46	X47	Y47	Z47	X48	Y48	Z48	X49	Y49	Z49	X50	Y50	Z50	X51	Y51	Z51	X52	Y52	Z52	X53	Y53	Z53	X54	Y54	Z54	X55	Y55	Z55	X56	Y56	Z56	X57	Y57	Z57	X58	Y58	Z58	X59	Y59	Z59	X60	Y60	Z60	

527	2.63	-241.1688232421876	1729.587280273438	-1046.9921875	-418.181121826172	1697.304321289063	-1081.662719726563	-401.1414184570314	1700.666625976563	-933.5396118164065	-443.117156982422	1508.954711914063	-1012.06640625	-419.0888061523439	1194.464111328125	-1006.692626953125	-282.5660400390626	1479.025024414063	-1036.590576171875	-369.0310974121094	1505.249755859375	-1180.152221679688	-276.1462402343751	1446.586547851563	-1314.574340820313	-254.1560974121094	1491.2578125	-1309.372924804688	-214.6962890625001	1461.833251953125	-1343.746826171875	-158.8499908447266	1489.437255859375	-1365.692749023438	-120.6644287109375	1433.634155273438	-1323.06787109375	105.5320892333985	1527.995483398438	-1382.198120117188	83.00852203369142	1542.228393554688	-1455.250122070313	182.4401397705078	1555.479370117188	-1416.568481445313	-334.5874938964844	1516.611083984375	-885.421813964844	-197.8949890136719	1464.496948242188	-776.0249023437502	-174.785629272461	1503.879760742188	-795.3072509765627	-129.0011444091797	1471.057495117188	-773.6137695312502	-63.81702423095705	1493.274169921875	-779.0164794921877	-46.45598983764649	1431.474365234375	-830.6745605468752	198.7570037841797	1526.973754882813	-836.3416748046877	189.3291168212891	1536.352172851563	-762.3822631835939	276.3119812011719	1552.425415039063	-820.3367309570315	-222.4830780029297	990.2261962890627	-1106.199340820313	-218.7366790771485	1011.931640625	-878.3941650390627	-411.1125793457032	1060.907348632813	-999.1788330078127	-410.6717834472657	1027.158447265625	-1025.73193359375	-413.1896362304689	1031.261596679688	-967.1231689453127	-295.3041992187501	822.809265136719	-1167.44287109375	-254.0446472167969	749.4296264648439	-1164.420288085938	-206.1993865966797	757.6076049804689	-1153.81982421875	-278.5782165527344	693.6599731445314	-1156.113525390625	-290.0270690917969	521.4205322265626	-1114.792358398438	-260.0148925781251	517.9483032226564	-994.4445800781252	-267.2175292968751	338.6705322265626	-1012.759155273438	-275.8696594238282	288.3254394531251	-1084.249389648438	-260.7711791992188	287.9630126953126	-1039.467407226563	-279.4847412109376	213.2415771484376	-1006.208862304688	-332.8947143554688	118.1266403198242	-1048.5400390625	-313.4760131835938	134.4788513183594	-961.6704101562502	-191.3917694091797	61.8359718322754	-977.4357910156252	-189.276596069336	59.67851638793947	-1022.189025878906	-237.281478881836	45.96651840209962	-1068.435546875	-212.0056152343751	845.7410888671877	-782.5111083984377	-147.3697814941407	830.8917236328127	-790.8455200195315	-126.3589324951172	852.917663574219	-803.005554199219	-113.3291549682617	755.0532836914064	-795.9644165039065	-13.75760078430176	648.1262817382814	-820.7888183593752	-4.360505104064942	646.7293701171876	-945.202819824219	83.82171630859376	559.7694702148439	-846.750671386719	81.17630767822267	459.8406982421876	-799.7064208984377	115.3140563964844	481.6981811523439	-823.313659667969	144.111083984375	444.6518859863282	-858.5611572265627	173.4504852294922	287.1738891601563	-822.354919433594	177.9960327148438	305.5942993164063	-912.169860839844	130.7417297363282	228.4791107177735	-866.2460937500002	326.5313720703126	292.8718566894532	-914.1296386718752	332.0684204101563	303.9551696777344	-869.8863525390627	306.3057861328126	266.3982238769532	-807.7799072265627	
528	2.635	-241.1467895507813	1729.241577148438	-1047.107788085938	-417.9674682617189	1697.229248046875	-1081.758422851563	-400.774871826172	1700.928466796875	-934.4855957031252	-442.9364318847657	1508.949462890625	-1012.067321777344	-419.231903076172	1194.4228515625	-1006.550231933594	-282.4770507812501	1478.925537109375	-1036.554565429688	-368.9135131835938	1505.193725585938	-1180.098754882813	-276.0530395507813	1446.547119140625	-1314.573364257813	-253.8415069580079	1491.025512695313	-1309.409301757813	-214.5543518066407	1461.7255859375	-1343.741943359375	-158.7419738769532	1489.4248046875	-1365.644653320313	-120.6023712158203	1433.7509765625	-1323.25634765625	106.024169921875	1527.948852539063	-1382.247192382813	83.15702056884767	1541.68994140625	-1454.674072265625	182.81494140625	1555.3310546875	-1416.359619140625	-334.3867492675782	1516.675903320313	-885.4556274414065	-197.7337951660157	1464.515502929688	-776.0811767578127	-174.6096343994141	1503.970336914063	-795.4053344726565	-128.8120574951172	1471.0771484375	-773.653747558594	-63.72931289672853	1493.269775390625	-779.0372314453127	-46.40045166015626	1431.45947265625	-830.5460205078127	198.7456054687501	1526.882202148438	-836.4053955078127	189.5545806884766	1536.1728515625	-762.4343261718751	276.4748840332032	1552.329711914063	-820.416931152344	-222.8542175292969	990.1428222656252	-1106.1513671875	-219.1993255615235	1011.759033203125	-878.298767089844	-411.4205322265626	1060.831420898438	-999.0229492187502	-410.8731689453126	1027.093872070313	-1025.5810546875	-413.4111328125001	1031.250854492188	-967.0185546875002	-294.9485473632813	822.5828247070315	-1167.545043945313	-253.6823272705079	749.3529663085939	-1164.37353515625	-205.6634063720704	757.5031127929689	-1153.655395507813	-277.9594116210938	693.5166015625001	-1156.148193359375	-289.0693054199219	521.3400268554689	-1114.92041015625	-259.6395874023438	517.5980834960939	-994.4527587890627	-266.4114685058594	338.6018371582032	-1013.123779296875	-275.2902832031251	288.1604309082032	-1084.120361328125	-260.2612304687501	287.7113952636719	-1039.247314453125	-279.1944274902344	213.1805114746094	-1006.045837402344	-333.4379272460938	118.5339126586914	-1048.456420898438	-313.4567565917969	134.4173278808594	-961.6148681640627	-191.3096923828125	61.83236694335939	-977.4024658203127	-189.3873748779297	59.69190216064455	-1022.140014648438	-237.2663879394532	46.01244354248048	-1068.355224609375	-212.0968933105469	845.8677978515627	-781.791931152344	-147.4517974853516	831.0254516601565	-791.1984863281252	-126.5634155273438	852.9088134765627	-803.0447998046877	-113.5744552612305	755.0383300781251	-795.8389282226565	-13.86030769348145	648.1589965820314	-820.7937011718752	-3.182882308959962	646.9296875000001	-945.224548339844	83.50765991210939	559.8243408203126	-846.444030761719	81.1969680786133	459.9663391113282	-799.6743164062502	115.2285537719727	481.830780029297	-823.287780761719	144.0625	444.7724914550782	-858.5040283203127	173.0504302978516	286.8213500976563	-823.2648925781252	177.9592437744141	305.6128845214844	-912.1105957031252	130.4136352539063	229.2257080078126	-865.6709594726565	326.6664123535157	293.1177673339844	-914.1188964843752	332.1567687988282	304.0804748535157	-869.9919433593752	306.2755126953126	266.3986816406251	-807.6137695312502	
529	2.64	-240.2374725341797	1729.984130859375	-1048.129760742188	-417.6594238281251	1697.200317382813	-1081.810302734375	-400.8970947265626	1700.78125	-934.1284790039065	-442.7578125000001	1509.044067382813	-1012.058837890625	-419.3106994628907	1194.539428710938	-1006.409606933594	-282.4242858886719	1478.914428710938	-1036.499877929688	-368.7165832519532	1505.148315429688	-1180.102172851563	-275.7336730957032	1446.437622070313	-1314.539794921875	-253.4965057373047	1490.81787109375	-1309.430419921875	-214.476547241211	1461.669921875	-1343.719360351563	-158.4644317626953	1489.206420898438	-1365.563232421875	-120.4872207641602	1432.959594726563	-1322.02734375	105.9564895629883	1527.631713867188	-1381.961059570313	83.5210647583008	1541.364135742188	-1454.576904296875	183.1496276855469	1555.068603515625	-1416.119873046875	-334.1102294921876	1516.691772460938	-885.4968872070315	-197.5028381347657	1464.528930664063	-776.1505126953127	-174.4903259277344	1504.018432617188	-795.4288330078127	-128.7266082763672	1471.11083984375	-773.5067138671877	-63.51713943481447	1493.288818359375	-779.1267700195315	-46.29388046264649	1431.423950195313	-830.5598754882815	198.9300842285157	1526.798828125	-836.4846801757815	189.6748046875	1535.994262695313	-762.5004272460939	276.5866394042969	1552.186645507813	-820.3903808593752	-223.1184539794922	990.0541992187502	-1106.097534179688	-219.4352569580079	1011.73046875	-878.4079589843752	-411.6958618164064	1060.727172851563	-998.8961181640627	-411.2928161621095	1027.092407226563	-1025.423095703125	-413.6828613281251	1031.150756835938	-966.8571777343752	-294.5101318359376	822.5737304687502	-1167.791381835938	-253.1563415527344	749.1832275390626	-1164.316650390625	-205.0482788085938	757.5375366210939	-1153.68896484375	-277.2889709472657	693.2584228515626	-1156.263549804688	-287.9930419921876	520.9398193359376	-1114.460815429688	-258.7435302734376	517.4343872070314	-994.4199829101565	-265.5932006835938	338.4085083007813	-1013.243347167969	-274.6466979980469	288.0966796875001	-1083.937255859375	-259.7160034179688	287.6386108398438	-1039.021362304688	-279.0235595703126	213.0872039794922	-1005.745300292969	-333.3224487304688	118.5574340820313	-1048.415893554688	-313.4184875488282	134.420639038086	-961.6031494140627	-191.4188385009766	61.83894729614259	-977.357116699219	-189.311019897461	59.72467422485353	-1022.096069335938	-237.1458129882813	46.13801956176759	-1068.319946289063	-212.3790435791016	845.7091064453127	-782.3401489257815	-147.7002410888672	830.8297119140627	-790.7530517578127	-126.6308288574219	852.9096679687502	-803.2715454101565	-113.7340545654297	755.0019531250001	-795.8156738281252	-13.97372722625733	648.2453613281251	-820.7504882812502	-3.222373723983766	646.9269409179689	-945.305114746094	83.40746307373048	559.8728637695314	-846.3144531250002	81.19573974609376	460.0336914062501	-799.5946044921877	115.1261672973633	481.918914794922	-823.1926269531252	143.978271484375	444.8766479492189	-858.512145996094	173.479965209961	287.3696899414063	-822.1006469726565	177.9193115234375	305.7578125000001	-912.0017089843752	130.6203155517578	229.0279083251954	-865.7685546875002	326.7553710937501	293.2726135253907	-913.9627075195315	332.3013610839844	304.3358154296876	-870.0601806640627	306.2729492187501	266.7146911621094	-807.6632080078127	
530	2.645	-240.103256225586	1729.338623046875	-1048.348388671875	-417.4933471679689	1697.13720703125	-1081.858520507813	-400.6914978027345	1700.781005859375	-934.1732177734377	-442.529022216797	1509.022216796875	-1012.097290039063	-419.3998413085939	1194.55029296875	-1006.21337890625	-282.2687988281251	1478.791137695313	-1036.479125976563	-368.4012756347657	1505.134765625	-1180.1552734375	-275.6176452636719	1446.390625	-1314.478515625	-253.2173156738282	1490.62060546875	-1309.377075195313	-214.3008422851563	1461.552734375	-1343.6875	-157.0351715087891	1488.08740234375	-1365.796630859375	-120.3476791381836	1433.259887695313	-1323.358032226563	106.3415832519532	1527.515380859375	-1381.746704101563	83.77374267578126	1541.1064453125	-1454.448974609375	183.2696228027344	1554.622924804688	-1415.756469726563	-333.9931945800782	1516.693115234375	-885.4293212890627	-197.3186035156251	1464.554565429688	-776.1560058593752	-174.4055480957032	1503.984497070313	-795.406677246094	-128.4539184570313	1471.136474609375	-773.6191406250002	-63.23633575439455	1493.234741210938	-779.168640136719	-46.20634078979493	1431.369995117188	-830.4747314453127	199.0730743408204	1526.662109375	-836.553649902344	189.8058166503907	1535.874877929688	-762.5638427734376	276.8261413574219	1552.090576171875	-820.5921630859377	-223.594955444336	989.9436645507815	-1106.017700195313	-219.7807312011719	1011.596008300781	-878.279724121094	-412.1050109863282	1060.656494140625	-998.7066040039065	-411.6672668457032	1027.05517578125	-1025.27392578125	-414.1673278808595	1031.185913085938	-966.6022949218752	-294.2419738769532	822.254333496094	-1167.872924804688	-252.7781982421876	749.0236206054689	-1164.309448242188	-204.6156463623047	757.4470214843751	-1153.584838867188	-276.6445312500001	693.0481567382814	-1156.38916015625	-286.9128112792969	520.7526245117189	-1114.615600585938	-257.8751831054688	517.3608398437501	-994.3612060546877	-264.8381042480469	338.3724975585938	-1013.3818359375	-273.9080505371094	288.0017395019532	-1083.77587890625	-259.5253601074219	286.8165588378907	-1037.71337890625	-278.7968139648438	212.8778839111329	-1005.359497070313	-333.2236938476563	118.5851211547852	-1048.40673828125	-313.4259643554688	134.4673309326172	-961.498229980469	-191.27587890625	61.85456848144533	-977.3699951171877	-189.2323303222657	59.7594337463379	-1022.02880859375	-237.1937866210938	46.14593887329102	-1068.271484375	-212.5763549804688	845.621032714844	-782.3215332031252	-147.7876281738282	830.7272949218752	-790.6082153320315	-126.8827514648438	852.8708496093752	-803.1883544921877	-113.8895645141602	754.8587646484376	-795.446228027344	-14.11082553863526	648.3037109375001	-820.698181152344	-3.361007690429688	646.9745483398439	-945.273864746094	83.24022674560548	559.9921264648439	-846.3929443359377	81.16483306884767	460.2088012695314	-799.561462402344	115.0058746337891	482.0340881347657	-823.0891723632815	143.9396057128907	444.9622497558595	-858.4866333007815	173.3155670166016	287.2622985839844	-822.4250488281252	178.0498352050782	305.9223022460938	-912.0078125000002	130.8283996582032	228.8502807617188	-865.912780761719	326.8518066406251	293.4928588867188	-914.0410766601565	332.2695312500001	304.5225830078126	-870.0355224609377	306.2813110351563	266.8411254882813	-807.7484130859377	
